[Header]
FileType HTR
DataType HTRS
FileVersion 1
NumSegments 64
NumFrames 4
DataFrameRate 30
EulerRotationOrder ZYX
CalibrationUnits mm
RotationUnits Degrees
GlobalAxisofGravity Y
BoneLengthAxis Y
ScaleFactor 1.0
[SegmentNames&Hierarchy]
Hips	GLOBAL
Spine	Hips
Spine1	Spine
Spine2	Spine1
Neck	Spine2
Head	Neck
LeftEye	Head
RightEye	Head
LeftShoulder	Spine2
LeftArm	LeftShoulder
LeftForeArm	LeftArm
LeftHand	LeftForeArm
LeftHandThumb1	LeftHand
LeftHandThumb2	LeftHandThumb1
LeftHandThumb3	LeftHandThumb2
LeftHandThumb4	LeftHandThumb3
LeftHandIndex1	LeftHand
LeftHandIndex2	LeftHandIndex1
LeftHandIndex3	LeftHandIndex2
LeftHandIndex4	LeftHandIndex3
LeftHandMiddle1	LeftHand
LeftHandMiddle2	LeftHandMiddle1
LeftHandMiddle3	LeftHandMiddle2
LeftHandMiddle4	LeftHandMiddle3
LeftHandRing1	LeftHand
LeftHandRing2	LeftHandRing1
LeftHandRing3	LeftHandRing2
LeftHandRing4	LeftHandRing3
LeftHandPinky1	LeftHand
LeftHandPinky2	LeftHandPinky1
LeftHandPinky3	LeftHandPinky2
LeftHandPinky4	LeftHandPinky3
RightShoulder	Spine2
RightArm	RightShoulder
RightForeArm	RightArm
RightHand	RightForeArm
RightHandPinky1	RightHand
RightHandPinky2	RightHandPinky1
RightHandPinky3	RightHandPinky2
RightHandPinky4	RightHandPinky3
RightHandRing1	RightHand
RightHandRing2	RightHandRing1
RightHandRing3	RightHandRing2
RightHandRing4	RightHandRing3
RightHandMiddle1	RightHand
RightHandMiddle2	RightHandMiddle1
RightHandMiddle3	RightHandMiddle2
RightHandMiddle4	RightHandMiddle3
RightHandIndex1	RightHand
RightHandIndex2	RightHandIndex1
RightHandIndex3	RightHandIndex2
RightHandIndex4	RightHandIndex3
RightHandThumb1	RightHand
RightHandThumb2	RightHandThumb1
RightHandThumb3	RightHandThumb2
RightHandThumb4	RightHandThumb3
LeftUpLeg	Hips
LeftLeg	LeftUpLeg
LeftFoot	LeftLeg
LeftToeBase	LeftFoot
RightUpLeg	Hips
RightLeg	RightUpLeg
RightFoot	RightLeg
RightToeBase	RightFoot
[BasePosition]
Hips	0	0	0	0	0	0	1
Spine	0	0	0	0	0	0	1
Spine1	0	0	0	0	0	0	1
Spine2	0	0	0	0	0	0	1
Neck	0	0	0	0	0	0	1
Head	0	0	0	0	0	0	1
LeftEye	0	0	0	0	0	0	1
RightEye	0	0	0	0	0	0	1
LeftShoulder	0	0	0	0	0	0	1
LeftArm	0	0	0	0	0	0	1
LeftForeArm	0	0	0	0	0	0	1
LeftHand	0	0	0	0	0	0	1
LeftHandThumb1	0	0	0	0	0	0	1
LeftHandThumb2	0	0	0	0	0	0	1
LeftHandThumb3	0	0	0	0	0	0	1
LeftHandThumb4	0	0	0	0	0	0	1
LeftHandIndex1	0	0	0	0	0	0	1
LeftHandIndex2	0	0	0	0	0	0	1
LeftHandIndex3	0	0	0	0	0	0	1
LeftHandIndex4	0	0	0	0	0	0	1
LeftHandMiddle1	0	0	0	0	0	0	1
LeftHandMiddle2	0	0	0	0	0	0	1
LeftHandMiddle3	0	0	0	0	0	0	1
LeftHandMiddle4	0	0	0	0	0	0	1
LeftHandRing1	0	0	0	0	0	0	1
LeftHandRing2	0	0	0	0	0	0	1
LeftHandRing3	0	0	0	0	0	0	1
LeftHandRing4	0	0	0	0	0	0	1
LeftHandPinky1	0	0	0	0	0	0	1
LeftHandPinky2	0	0	0	0	0	0	1
LeftHandPinky3	0	0	0	0	0	0	1
LeftHandPinky4	0	0	0	0	0	0	1
RightShoulder	0	0	0	0	0	0	1
RightArm	0	0	0	0	0	0	1
RightForeArm	0	0	0	0	0	0	1
RightHand	0	0	0	0	0	0	1
RightHandPinky1	0	0	0	0	0	0	1
RightHandPinky2	0	0	0	0	0	0	1
RightHandPinky3	0	0	0	0	0	0	1
RightHandPinky4	0	0	0	0	0	0	1
RightHandRing1	0	0	0	0	0	0	1
RightHandRing2	0	0	0	0	0	0	1
RightHandRing3	0	0	0	0	0	0	1
RightHandRing4	0	0	0	0	0	0	1
RightHandMiddle1	0	0	0	0	0	0	1
RightHandMiddle2	0	0	0	0	0	0	1
RightHandMiddle3	0	0	0	0	0	0	1
RightHandMiddle4	0	0	0	0	0	0	1
RightHandIndex1	0	0	0	0	0	0	1
RightHandIndex2	0	0	0	0	0	0	1
RightHandIndex3	0	0	0	0	0	0	1
RightHandIndex4	0	0	0	0	0	0	1
RightHandThumb1	0	0	0	0	0	0	1
RightHandThumb2	0	0	0	0	0	0	1
RightHandThumb3	0	0	0	0	0	0	1
RightHandThumb4	0	0	0	0	0	0	1
LeftUpLeg	0	0	0	0	0	0	1
LeftLeg	0	0	0	0	0	0	1
LeftFoot	0	0	0	0	0	0	1
LeftToeBase	0	0	0	0	0	0	1
RightUpLeg	0	0	0	0	0	0	1
RightLeg	0	0	0	0	0	0	1
RightFoot	0	0	0	0	0	0	1
RightToeBase	0	0	0	0	0	0	1
[Hips]
24	-19.04153824	1031.540283	-29.09608841	2.472652197	5.185526848	2.821503401	1.0
25	1.242943883	1007.998596	-15.45930958	1.920800567	3.945498943	3.538525343	1.0
26	19.87196159	976.3776245	-7.936655045	2.111850739	0.126327306	4.995279312	1.0
27	33.20318604	944.5844727	-10.99062157	2.166877985	-7.149202347	6.631913185	1.0
[Spine]
24	0	101.8159943	1.315000057	12.08792782	-1.011652946	1.494160891	1.0
25	0	101.8159943	1.315000057	10.31057549	0.1965121776	1.730703592	1.0
26	0	101.8159943	1.315000057	8.289587021	1.470719695	0.4156902432	1.0
27	0	101.8159943	1.315000057	7.668030739	2.25459528	-2.378399134	1.0
[Spine1]
24	0	100.8349991	-10.00800037	2.465612173	-0.1342037618	0.409776777	1.0
25	0	100.8349991	-10.00800037	1.925850034	0.1461437643	1.101081371	1.0
26	0	100.8349991	-10.00800037	1.509705782	0.3863010406	1.256152391	1.0
27	0	100.8349991	-10.00800037	1.48259294	0.5074470639	0.7370589375	1.0
[Spine2]
24	0	91	-13.73399925	2.464584827	-0.116291523	0.4052010477	1.0
25	0	91	-13.73399925	1.924289584	0.2040930241	1.094112873	1.0
26	0	91	-13.73399925	1.504676223	0.4476083219	1.249865413	1.0
27	0	91	-13.73399925	1.475437045	0.5432851911	0.7361832261	1.0
[Neck]
24	0	166.7169952	-25.16200066	8.38166523	1.479936957	-4.027294159	1.0
25	0	166.7169952	-25.16200066	10.1615839	1.774076939	-6.176185131	1.0
26	0	166.7169952	-25.16200066	11.34276485	2.318322659	-7.077826023	1.0
27	0	166.7169952	-25.16200066	11.20159245	3.144239187	-6.384763718	1.0
[Head]
24	0	96.17900085	16.84999847	-30.86804008	1.771557808	-5.556189537	1.0
25	0	96.17900085	16.84999847	-27.91811562	0.9467535019	-4.523591042	1.0
26	0	96.17900085	16.84999847	-25.84123993	2.114853621	-4.044632435	1.0
27	0	96.17900085	16.84999847	-27.10721397	6.402236462	-4.711694717	1.0
[LeftEye]
24	30.6760006	64.09500122	92.83599854	0	0	0	1.0
25	30.6760006	64.09500122	92.83599854	0	0	0	1.0
26	30.6760006	64.09500122	92.83599854	0	0	0	1.0
27	30.6760006	64.09500122	92.83599854	0	0	0	1.0
[RightEye]
24	-30.6760006	64.09500122	92.83499908	0	0	0	1.0
25	-30.6760006	64.09500122	92.83499908	0	0	0	1.0
26	-30.6760006	64.09500122	92.83499908	0	0	0	1.0
27	-30.6760006	64.09500122	92.83499908	0	0	0	1.0
[LeftShoulder]
24	45.70400238	109.4599991	-26.28000069	4.963181019	-26.25261497	-10.15065193	1.0
25	45.70400238	109.4599991	-26.28000069	5.386868477	-25.41144753	-12.40034008	1.0
26	45.70400238	109.4599991	-26.28000069	5.393101215	-24.69478607	-12.67659187	1.0
27	45.70400238	109.4599991	-26.28000069	5.297067642	-24.72215462	-12.16866684	1.0
[LeftArm]
24	105.923996	-5.24600029	-22.32099915	-2.938955069	-29.16734314	-47.31302261	1.0
25	105.923996	-5.24600029	-22.32099915	1.42089808	-28.1140461	-56.51157379	1.0
26	105.923996	-5.24600029	-22.32099915	8.604099274	-27.79883575	-57.35421753	1.0
27	105.923996	-5.24600029	-22.32099915	15.67785645	-31.54043388	-49.83476639	1.0
[LeftForeArm]
24	278.414978	-0.0009999999311	0	8.114374214e-05	-83.0861969	-0.0002799542854	1.0
25	278.414978	-0.0009999999311	0	4.312480451e-05	-80.54088593	-0.0002894843929	1.0
26	278.414978	-0.0009999999311	0	-3.518813537e-05	-75.03573608	-0.0001541576203	1.0
27	278.414978	-0.0009999999311	0	-2.402687642e-05	-69.56204987	-0.0001885947422	1.0
[LeftHand]
24	283.2879944	0	0	92.498909	-32.2959137	-28.71053314	1.0
25	283.2879944	0	0	92.4003067	-35.90222931	-18.88197708	1.0
26	283.2879944	0	0	87.37327576	-33.08005905	-9.745755196	1.0
27	283.2879944	0	0	78.45967102	-19.14325905	-5.015886784	1.0
[LeftHandThumb1]
24	24.6609993	-15.75	26.8239994	-1.334192157	-7.663323879	8.382230759	1.0
25	24.6609993	-15.75	26.8239994	-1.40797472	-8.119837761	8.570703506	1.0
26	24.6609993	-15.75	26.8239994	-1.44110918	-8.317156792	8.653087616	1.0
27	24.6609993	-15.75	26.8239994	-1.444306612	-8.336148262	8.661017418	1.0
[LeftHandThumb2]
24	32.29800034	-18.64699936	18.64699936	7.435390472	32.16600418	-0.8552899361	1.0
25	32.29800034	-18.64699936	18.64699936	6.936877728	34.67752457	-1.335696459	1.0
26	32.29800034	-18.64699936	18.64699936	6.696148396	35.77935028	-1.549764514	1.0
27	32.29800034	-18.64699936	18.64699936	6.673311234	35.88815308	-1.569274902	1.0
[LeftHandThumb3]
24	26.52600098	-15.31499958	15.31499958	-3.067456007	26.06172371	22.92477036	1.0
25	26.52600098	-15.31499958	15.31499958	-1.554103136	28.09525108	23.92860603	1.0
26	26.52600098	-15.31499958	15.31499958	-0.8661464453	28.97521019	24.39479446	1.0
27	26.52600098	-15.31499958	15.31499958	-0.798772037	29.06148911	24.43994331	1.0
[LeftHandThumb4]
24	19.54599953	-11.28499985	11.28499985	0	0	0	1.0
25	19.54599953	-11.28499985	11.28499985	0	0	0	1.0
26	19.54599953	-11.28499985	11.28499985	0	0	0	1.0
27	19.54599953	-11.28499985	11.28499985	0	0	0	1.0
[LeftHandIndex1]
24	91.09299469	-5.170999527	22.60099792	2.283646107	5.586894035	-44.80408096	1.0
25	91.09299469	-5.170999527	22.60099792	2.144151688	6.144257545	-49.69697189	1.0
26	91.09299469	-5.170999527	22.60099792	2.075660944	6.371835709	-51.84217453	1.0
27	91.09299469	-5.170999527	22.60099792	2.06883359	6.394032478	-52.05290985	1.0
[LeftHandIndex2]
24	36.76399994	0	0	-4.509405136	5.676485538	-76.93160248	1.0
25	36.76399994	0	0	-4.907317162	5.75443697	-80.92234802	1.0
26	36.76399994	0	0	-5.082253456	5.777803421	-82.65994263	1.0
27	36.76399994	0	0	-5.099237919	5.780059338	-82.82873535	1.0
[LeftHandIndex3]
24	28.83100128	0	0	-5.814938068	5.826806545	-89.90558624	1.0
25	28.83100128	0	0	-6.256779194	5.811307907	-94.25585175	1.0
26	28.83100128	0	0	-6.44760561	5.791986942	-96.14389801	1.0
27	28.83100128	0	0	-6.466012478	5.790116787	-96.32620239	1.0
[LeftHandIndex4]
24	23.92700005	0	0	0	0	0	1.0
25	23.92700005	0	0	0	0	0	1.0
26	23.92700005	0	0	0	0	0	1.0
27	23.92700005	0	0	0	0	0	1.0
[LeftHandMiddle1]
24	95.33399963	0	0	-5.891824245	5.302129269	-68.84057617	1.0
25	95.33399963	0	0	-6.310921192	5.289517879	-72.6330719	1.0
26	95.33399963	0	0	-6.492684841	5.273470402	-74.28503418	1.0
27	95.33399963	0	0	-6.510351181	5.271873474	-74.44573975	1.0
[LeftHandMiddle2]
24	36.98199844	0	0	-6.877866268	5.731706142	-100.4348068	1.0
25	36.98199844	0	0	-7.371183872	5.619774818	-105.4102631	1.0
26	36.98199844	0	0	-7.581168652	5.555140018	-107.5725327	1.0
27	36.98199844	0	0	-7.6014781	5.548855305	-107.7819748	1.0
[LeftHandMiddle3]
24	29.50900078	0	0	-1.434497714	3.832322598	-41.03888321	1.0
25	29.50900078	0	0	-1.559984207	3.971709013	-42.88342285	1.0
26	29.50900078	0	0	-1.61641562	4.030929089	-43.68825531	1.0
27	29.50900078	0	0	-1.62192452	4.036702156	-43.76676178	1.0
[LeftHandMiddle4]
24	28.3390007	0	0	0	0	0	1.0
25	28.3390007	0	0	0	0	0	1.0
26	28.3390007	0	0	0	0	0	1.0
27	28.3390007	0	0	0	0	0	1.0
[LeftHandRing1]
24	91.04499817	-0.4390000105	-18.65100098	-8.006024361	2.326587439	-88.33694458	1.0
25	91.04499817	-0.4390000105	-18.65100098	-8.316617966	2.084233284	-91.34566498	1.0
26	91.04499817	-0.4390000105	-18.65100098	-8.448316574	1.973272324	-92.64756012	1.0
27	91.04499817	-0.4390000105	-18.65100098	-8.46097374	1.962611318	-92.77259827	1.0
[LeftHandRing2]
24	31.54000092	0	0	-4.863715172	5.746893883	-80.49068451	1.0
25	31.54000092	0	0	-5.26577282	5.800113678	-84.48221588	1.0
26	31.54000092	0	0	-5.441828728	5.81263876	-86.22002411	1.0
27	31.54000092	0	0	-5.458930969	5.813830853	-86.38884735	1.0
[LeftHandRing3]
24	29.37700081	0	0	-1.285631657	3.654609919	-38.75882721	1.0
25	29.37700081	0	0	-1.400627136	3.793251276	-40.5300293	1.0
26	29.37700081	0	0	-1.452436328	3.852379084	-41.30308914	1.0
27	29.37700081	0	0	-1.457486987	3.858141661	-41.37855911	1.0
[LeftHandRing4]
24	26.47500038	0	0	0	0	0	1.0
25	26.47500038	0	0	0	0	0	1.0
26	26.47500038	0	0	0	0	0	1.0
27	26.47500038	0	0	0	0	0	1.0
[LeftHandPinky1]
24	80.77799988	-4.887000084	-38.06099701	-15.80761337	3.344098091	-93.53076935	1.0
25	80.77799988	-4.887000084	-38.06099701	-16.41919327	2.956287861	-96.87808228	1.0
26	80.77799988	-4.887000084	-38.06099701	-16.67964172	2.780068159	-98.32857513	1.0
27	80.77799988	-4.887000084	-38.06099701	-16.70466805	2.76300931	-98.46841431	1.0
[LeftHandPinky2]
24	36	0	0	-2.192987442	4.557187557	-51.37701416	1.0
25	36	0	0	-2.198551178	4.561614037	-51.4471283	1.0
26	36	0	0	-2.20012331	4.562851429	-51.46696091	1.0
27	36	0	0	-2.200115919	4.562851429	-51.46674728	1.0
[LeftHandPinky3]
24	21.14200211	0	0	-2.335772276	4.667331219	-53.15262222	1.0
25	21.14200211	0	0	-2.343718529	4.673248291	-53.25019455	1.0
26	21.14200211	0	0	-2.346253395	4.675125122	-53.28121567	1.0
27	21.14200211	0	0	-2.346299171	4.675163746	-53.28194809	1.0
[LeftHandPinky4]
24	19.75699997	0	0	0	0	0	1.0
25	19.75699997	0	0	0	0	0	1.0
26	19.75699997	0	0	0	0	0	1.0
27	19.75699997	0	0	0	0	0	1.0
[RightShoulder]
24	-45.70000076	109.4620056	-26.28000069	5.596029758	20.82768822	13.72064018	1.0
25	-45.70000076	109.4620056	-26.28000069	5.542793274	20.98914337	13.54244041	1.0
26	-45.70000076	109.4620056	-26.28000069	5.455574989	21.59527779	12.85897732	1.0
27	-45.70000076	109.4620056	-26.28000069	5.221970558	22.95646858	11.22315979	1.0
[RightArm]
24	-105.9280014	-5.248000145	-22.32099915	21.35622406	49.6696701	60.13191986	1.0
25	-105.9280014	-5.248000145	-22.32099915	21.71647644	40.62102127	65.11613464	1.0
26	-105.9280014	-5.248000145	-22.32099915	20.24342537	35.71557617	62.21709061	1.0
27	-105.9280014	-5.248000145	-22.32099915	21.95584297	40.05675125	52.44873047	1.0
[RightForeArm]
24	-278.414978	0	0	-1.591936962e-05	85.09378815	5.422411778e-05	1.0
25	-278.414978	0	0	-0.0002021199471	87.0273819	-6.321843102e-06	1.0
26	-278.414978	0	0	-4.606494258e-06	85.42398834	7.321719022e-05	1.0
27	-278.414978	0	0	5.057739259e-07	78.34020996	-2.424874583e-05	1.0
[RightHand]
24	-283.2879944	0	0.0009999999311	-24.09866905	26.13228607	-37.81518555	1.0
25	-283.2879944	0	0.0009999999311	-20.3211956	20.57136154	-41.60471725	1.0
26	-283.2879944	0	0.0009999999311	-8.559473991	12.87653637	-36.99839783	1.0
27	-283.2879944	0	0.0009999999311	1.579630971	5.486281872	-26.05911064	1.0
[RightHandPinky1]
24	-80.76699829	-4.885000229	-38.06000137	-15.27034569	-1.566834092	98.14768982	1.0
25	-80.76699829	-4.885000229	-38.06000137	-15.22661495	-1.595857501	97.8779068	1.0
26	-80.76699829	-4.885000229	-38.06000137	-15.15572262	-1.649138451	97.41490936	1.0
27	-80.76699829	-4.885000229	-38.06000137	-15.16708946	-1.640936732	97.48690033	1.0
[RightHandPinky2]
24	-36	0	0.0009999999311	-1.752150893	-3.628761053	51.55567551	1.0
25	-36	0	0.0009999999311	-1.750919223	-3.627775669	51.53614426	1.0
26	-36	0	0.0009999999311	-1.749106646	-3.626340389	51.50758362	1.0
27	-36	0	0.0009999999311	-1.749444366	-3.626600981	51.51280975	1.0
[RightHandPinky3]
24	-21.14200211	0	0	-1.870016336	-3.719153881	53.37513351	1.0
25	-21.14200211	0	0	-1.868543506	-3.718059778	53.35251999	1.0
26	-21.14200211	0	0	-1.86638248	-3.7164433	53.31922913	1.0
27	-21.14200211	0	0	-1.866778493	-3.716751575	53.32527542	1.0
[RightHandPinky4]
24	-19.75699997	0	0	0	0	0	1.0
25	-19.75699997	0	0	0	0	0	1.0
26	-19.75699997	0	0	0	0	0	1.0
27	-19.75699997	0	0	0	0	0	1.0
[RightHandRing1]
24	-91.03599548	-0.4390000105	-18.65100098	-7.106285095	-0.7585146427	92.41342926	1.0
25	-91.03599548	-0.4390000105	-18.65100098	-7.085923672	-0.7767024636	92.1696167	1.0
26	-91.03599548	-0.4390000105	-18.65100098	-7.05267477	-0.8096963167	91.75653076	1.0
27	-91.03599548	-0.4390000105	-18.65100098	-7.057902813	-0.8044495583	91.82152557	1.0
[RightHandRing2]
24	-31.54000092	0	0	-4.383144379	-4.627251148	86.93869019	1.0
25	-31.54000092	0	0	-4.357459068	-4.62245512	86.61569977	1.0
26	-31.54000092	0	0	-4.310627937	-4.619491577	86.03445435	1.0
27	-31.54000092	0	0	-4.317631245	-4.619966507	86.12137604	1.0
[RightHandRing3]
24	-29.37700081	0	0	-1.174366832	-3.084744215	41.70198059	1.0
25	-29.37700081	0	0	-1.166936755	-3.075176716	41.55225754	1.0
26	-29.37700081	0	0	-1.151430368	-3.057623625	41.26247406	1.0
27	-29.37700081	0	0	-1.153604746	-3.06010437	41.30327988	1.0
[RightHandRing4]
24	-26.47500038	0	0	0	0	0	1.0
25	-26.47500038	0	0	0	0	0	1.0
26	-26.47500038	0	0	0	0	0	1.0
27	-26.47500038	0	0	0	0	0	1.0
[RightHandMiddle1]
24	-95.32500458	0	0	-5.548055649	-4.092560291	74.21551514	1.0
25	-95.32500458	0	0	-5.520624638	-4.093650818	73.9132309	1.0
26	-95.32500458	0	0	-5.472567558	-4.101173401	73.37591553	1.0
27	-95.32500458	0	0	-5.479823589	-4.10009861	73.45703125	1.0
[RightHandMiddle2]
24	-36.98199844	0	0	-6.092979431	-4.399205685	108.4132767	1.0
25	-36.98199844	0	0	-6.060973644	-4.404427052	108.012619	1.0
26	-36.98199844	0	0	-6.006558418	-4.421755791	107.3053513	1.0
27	-36.98199844	0	0	-6.014838219	-4.419188499	107.4127426	1.0
[RightHandMiddle3]
24	-29.50900078	0	0	-1.306323409	-3.228632212	44.09952927	1.0
25	-29.50900078	0	0	-1.2982198	-3.219009876	43.94402695	1.0
26	-29.50900078	0	0	-1.28146112	-3.201583147	43.64485168	1.0
27	-29.50900078	0	0	-1.283832192	-3.204058409	43.68718719	1.0
[RightHandMiddle4]
24	-28.3390007	0	0.0009999999311	0	0	0	1.0
25	-28.3390007	0	0.0009999999311	0	0	0	1.0
26	-28.3390007	0	0.0009999999311	0	0	0	1.0
27	-28.3390007	0	0.0009999999311	0	0	0	1.0
[RightHandIndex1]
24	-91.08300018	-5.167999744	22.60099792	2.631329536	-5.443234444	52.02440643	1.0
25	-91.08300018	-5.167999744	22.60099792	2.635363579	-5.401679516	51.63912964	1.0
26	-91.08300018	-5.167999744	22.60099792	2.647075653	-5.336939812	50.92737198	1.0
27	-91.08300018	-5.167999744	22.60099792	2.645650625	-5.346699238	51.03160477	1.0
[RightHandIndex2]
24	-36.76399994	0	0	-4.097119808	-4.60309267	83.38516998	1.0
25	-36.76399994	0	0	-4.071791172	-4.596719742	83.06221771	1.0
26	-36.76399994	0	0	-4.025242329	-4.59087944	82.48104858	1.0
27	-36.76399994	0	0	-4.032200813	-4.59179163	82.56795502	1.0
[RightHandIndex3]
24	-28.83100128	0	0	-5.18626976	-4.600967884	96.89754486	1.0
25	-28.83100128	0	0	-5.157690048	-4.600441933	96.54413605	1.0
26	-28.83100128	0	0	-5.107974529	-4.605888367	95.92480469	1.0
27	-28.83100128	0	0	-5.11559391	-4.605111599	96.01952362	1.0
[RightHandIndex4]
24	-23.92700005	0	0	0	0	0	1.0
25	-23.92700005	0	0	0	0	0	1.0
26	-23.92700005	0	0	0	0	0	1.0
27	-23.92700005	0	0	0	0	0	1.0
[RightHandThumb1]
24	-24.64799881	-15.72700024	26.82600021	-2.398858547	10.24200726	-8.31926918	1.0
25	-24.64799881	-15.72700024	26.82600021	-2.393850565	10.20583916	-8.30355835	1.0
26	-24.64799881	-15.72700024	26.82600021	-2.384897709	10.14634323	-8.277160645	1.0
27	-24.64799881	-15.72700024	26.82600021	-2.386318207	10.15585804	-8.281384468	1.0
[RightHandThumb2]
24	-32.29800034	-18.64699936	18.64699936	6.982890129	-37.89154434	0.6800495982	1.0
25	-32.29800034	-18.64699936	18.64699936	7.023118973	-37.69745255	0.6379816532	1.0
26	-32.29800034	-18.64699936	18.64699936	7.099487305	-37.33609772	0.5771980882	1.0
27	-32.29800034	-18.64699936	18.64699936	7.086578846	-37.3886261	0.5887966156	1.0
[RightHandThumb3]
24	-26.52600098	-15.31399918	15.31399918	3.562197447	-34.73659897	-26.29920387	1.0
25	-26.52600098	-15.31399918	15.31399918	3.439137459	-34.58119202	-26.21002388	1.0
26	-26.52600098	-15.31399918	15.31399918	3.205862761	-34.31344986	-26.03656769	1.0
27	-26.52600098	-15.31399918	15.31399918	3.241562605	-34.35412598	-26.06334877	1.0
[RightHandThumb4]
24	-19.54599953	-11.28499985	11.28499985	0	0	0	1.0
25	-19.54599953	-11.28499985	11.28499985	0	0	0	1.0
26	-19.54599953	-11.28499985	11.28499985	0	0	0	1.0
27	-19.54599953	-11.28499985	11.28499985	0	0	0	1.0
[LeftUpLeg]
24	82.07800293	-67.51699829	-15.99599934	-45.43800735	22.90588951	11.82102585	1.0
25	82.07800293	-67.51699829	-15.99599934	-34.02709198	11.4163084	12.58759689	1.0
26	82.07800293	-67.51699829	-15.99599934	-24.89179039	2.438061714	9.856070518	1.0
27	82.07800293	-67.51699829	-15.99599934	-21.44878578	2.531707525	5.593057156	1.0
[LeftLeg]
24	0	-443.7049866	2.845999956	67.95833588	-1.34094739	-4.070208549	1.0
25	0	-443.7049866	2.845999956	56.61294556	-0.7242899537	-1.69258976	1.0
26	0	-443.7049866	2.845999956	47.2838707	2.313971281	2.705703974	1.0
27	0	-443.7049866	2.845999956	48.44088364	5.532123566	7.290170193	1.0
[LeftFoot]
24	0	-444.2789917	-29.8219986	18.66884232	3.235078573	-18.26261139	1.0
25	0	-444.2789917	-29.8219986	17.89745331	4.016444683	-18.59250641	1.0
26	0	-444.2789917	-29.8219986	9.367955208	5.320711613	-17.31321716	1.0
27	0	-444.2789917	-29.8219986	-11.70213604	6.629932404	-16.79436874	1.0
[LeftToeBase]
24	0	-87.28699493	107.1060028	-0.2962887883	0.03448188677	0.1154398918	1.0
25	0	-87.28699493	107.1060028	-9.690958023	-0.1206714585	-0.4040441215	1.0
26	0	-87.28699493	107.1060028	-22.99408722	-0.7183232307	-2.405036211	1.0
27	0	-87.28699493	107.1060028	-15.6957283	-0.1206799299	-0.4040496945	1.0
[RightUpLeg]
24	-82.07800293	-67.51699829	-15.99599934	-18.8961277	4.942903996	5.759823799	1.0
25	-82.07800293	-67.51699829	-15.99599934	-17.72999954	4.52969265	5.704490662	1.0
26	-82.07800293	-67.51699829	-15.99599934	-25.25770187	5.620064735	2.68423152	1.0
27	-82.07800293	-67.51699829	-15.99599934	-38.52113724	8.158802032	-2.20999527	1.0
[RightLeg]
24	0	-443.7049866	2.861999989	29.88911057	-6.827038765	-7.123075962	1.0
25	0	-443.7049866	2.861999989	30.76688576	-7.209544659	-7.470184803	1.0
26	0	-443.7049866	2.861999989	45.69776535	-5.505810261	-8.43759346	1.0
27	0	-443.7049866	2.861999989	64.08570099	-3.988619566	-9.198365211	1.0
[RightFoot]
24	0	-444.2770081	-29.83799934	-1.950247645	2.751381397	4.828084469	1.0
25	0	-444.2770081	-29.83799934	-9.310994148	1.579118252	-4.020619392	1.0
26	0	-444.2770081	-29.83799934	-13.82347298	2.752257109	-3.523898125	1.0
27	0	-444.2770081	-29.83799934	-6.923166275	9.161251068	7.236150265	1.0
[RightToeBase]
24	0	-87.28699493	107.1060028	-11.78266048	7.85116967e-08	2.244350526e-06	1.0
25	0	-87.28699493	107.1060028	-12.71435833	-2.745400479e-06	-1.475471549e-06	1.0
26	0	-87.28699493	107.1060028	-15.57417679	1.737450589e-06	1.55946168e-06	1.0
27	0	-87.28699493	107.1060028	-15.43239594	1.189039494e-06	1.490292561e-06	1.0
[EndOfFile]
